<svg xmlns="http://www.w3.org/2000/svg" viewBox="0 0 400 400" fill="#d7dae0">
    <path d="M200.2 392L195 394.8L195.8 395.4L200.2 393V397.8L372.4 298.4V287.6L200.2 387V392ZM200.2 359.2L166.6 378.6L168.2 379.4L200.2 361.2V365.2L372.4 265.6V255.6L200.2 355.2V359.2ZM200.2 326.6L138.4 362.2L140.6 363.6L200.2 329.2V332.4L372.4 233V223.8L200.2 323.2V326.6ZM372.4 99.2L370 97.8L232 177.4L214 167L256 142.8V136.8L346.8 84.4L342.4 81.8L256 131.6V126.4L199.8 158.8L180.4 147.6L318.4 68L314.6 65.8L176.6 145.6L157.8 134.6L188.4 117L182.8 113.6L290.2 51.6L287 49.8L179.6 112L174.2 108.8L143.6 126.4V132.8L114.8 149.4L112.6 148.2L27.6 197.2V205.6L120 152.4L117.8 151.2L143.6 136.2V142.8L162.4 153.8L142.4 165.2L141 164.4L27.6 230V237.6L147.6 168.2L146.2 167.4L166.2 155.8L185.6 167L143.6 191.4V195.8L27.6 262.6V269.4L143.6 202.4V207.6L161.6 218L27.6 295.4V298.2L30.2 299.8L166.8 221L185.4 231.8L143.6 255.6V261L53.4 313.2L57.8 315.8L143.6 266.2V272.6L199.8 240L216.8 249.8L200.2 259.6V261.2L81.8 329.4L85.4 331.6L200.2 265.4V267L223.4 253.6L241.8 264.2L211.6 281.6L214.4 283.2L200.2 291.4V293.8L110 345.8L113 347.6L200.2 297.4V299.8L221.6 287.4L225.8 289.8L256 272.6V267.6L372.4 200.2V192L256 259.2V256.2L237.6 245.4L372.4 167.6V160L231 241.8L214 232L256 207.6V202.2L372.4 135V128.2L256 195.4V191.2L237 180.4L372.4 102.2V99.2ZM157.8 199.4L199.8 175.2L217.6 185.6L197.8 197.2L175.8 209.8L157.8 199.4ZM241.8 199.4L199.6 223.6L181 212.8L200.2 201.6L222.8 188.6L241.8 199.4ZM89.4 134.8L261.8 35.4L259.4 34L87.2 133.4L84.4 131.8L27.6 164.6V173.8L92.2 136.4L89.4 134.8ZM61.2 118.6L233.6 19L231.8 18L59.4 117.6L56 115.6L27.6 132V142L64.6 120.6L61.2 118.6ZM32.8 102.2L205.2 2.6L204.2 2L31.8 101.6L27.6 99.2V110L37 104.6L32.8 102.2Z"/>
</svg>
